<svg width="15" height="15" viewBox="0 0 15 15" fill="none" xmlns="http://www.w3.org/2000/svg">
<path d="M14.5777 3.6453L11.3555 0.422627C11.2216 0.288641 11.0626 0.182355 10.8875 0.109839C10.7125 0.0373238 10.5249 0 10.3354 0C10.146 0 9.95837 0.0373238 9.78334 0.109839C9.60831 0.182355 9.44928 0.288641 9.31534 0.422627L0.422611 9.31543C0.288186 9.44897 0.181612 9.60786 0.109068 9.7829C0.0365235 9.95793 -0.000546867 10.1456 6.09617e-06 10.3351V13.5578C6.09617e-06 13.9403 0.151966 14.3071 0.422457 14.5776C0.692947 14.848 1.05981 15 1.44234 15H4.66524C4.85472 15.0005 5.04242 14.9634 5.21746 14.8909C5.3925 14.8183 5.55141 14.7118 5.68498 14.5774L14.5777 5.68461C14.8481 5.41415 15 5.04738 15 4.66495C15 4.28253 14.8481 3.91575 14.5777 3.6453ZM4.54337 13.2693H1.73081V10.457L7.78862 4.39958L10.6012 7.21194L4.54337 13.2693ZM11.8272 5.98604L9.01461 3.17369L10.3372 1.85116L13.1498 4.66351L11.8272 5.98604Z" fill="black"/>
</svg>
