<svg width="20" height="15" viewBox="0 0 20 15" fill="none" xmlns="http://www.w3.org/2000/svg">
<path d="M19.9184 7.06518C19.8885 6.99286 19.1822 5.25625 17.622 3.52857C15.5344 1.22054 12.9034 0 10.0006 0C7.09784 0 4.46681 1.22054 2.38166 3.52857C0.82143 5.25625 0.115091 6.99286 0.0828386 7.06518C0.0282128 7.20232 0 7.35056 0 7.50045C0 7.65033 0.0282128 7.79858 0.0828386 7.93571C0.112673 8.00893 0.819011 9.74464 2.38005 11.4723C4.46681 13.7804 7.09784 15 10.0006 15C12.9034 15 15.5344 13.7804 17.6187 11.4723C19.1798 9.74464 19.8861 8.00893 19.9159 7.93571C19.971 7.79876 19.9996 7.65062 20 7.50073C20.0004 7.35084 19.9726 7.2025 19.9184 7.06518ZM16.2044 10.0116C14.4733 11.8991 12.3865 12.8571 10.0006 12.8571C7.6147 12.8571 5.52793 11.8991 3.79918 10.0107C3.11892 9.26538 2.53377 8.42067 2.05994 7.5C2.53391 6.5797 3.11905 5.7353 3.79918 4.99018C5.52874 3.10089 7.6147 2.14286 10.0006 2.14286C12.3865 2.14286 14.4725 3.10089 16.202 4.99018C16.8822 5.73524 17.4674 6.57964 17.9413 7.5C17.4674 8.42062 16.8822 9.26532 16.202 10.0107L16.2044 10.0116ZM10.0006 3.57143C9.29891 3.57143 8.61298 3.80184 8.02954 4.23351C7.44611 4.66519 6.99137 5.27875 6.72285 5.9966C6.45432 6.71445 6.38406 7.50436 6.52096 8.26643C6.65785 9.02849 6.99574 9.7285 7.49192 10.2779C7.98809 10.8273 8.62025 11.2015 9.30846 11.3531C9.99667 11.5047 10.71 11.4269 11.3583 11.1295C12.0066 10.8322 12.5607 10.3286 12.9505 9.6826C13.3403 9.03655 13.5484 8.277 13.5484 7.5C13.5474 6.45844 13.1732 5.45988 12.5081 4.72339C11.843 3.98689 10.9412 3.57261 10.0006 3.57143ZM10.0006 9.28571C9.68165 9.28571 9.36986 9.18098 9.10466 8.98477C8.83947 8.78855 8.63277 8.50966 8.51071 8.18336C8.38866 7.85707 8.35672 7.49802 8.41894 7.15162C8.48117 6.80523 8.63476 6.48705 8.86029 6.23731C9.08582 5.98757 9.37317 5.8175 9.68599 5.7486C9.99881 5.6797 10.3231 5.71506 10.6177 5.85021C10.9124 5.98537 11.1643 6.21425 11.3415 6.50791C11.5187 6.80157 11.6132 7.14682 11.6132 7.5C11.6132 7.9736 11.4433 8.4278 11.1409 8.76269C10.8385 9.09758 10.4283 9.28571 10.0006 9.28571Z" fill="black"/>
</svg>
